<svg xmlns="http://www.w3.org/2000/svg" width="96" height="96" viewBox="0 0 96 96">
    <defs>
        <linearGradient id="a" x1="32.792%" x2="64.399%" y1="-43.118%" y2="106.347%">
            <stop offset="0%" stop-color="#622774"/>
            <stop offset="100%" stop-color="#C53364"/>
        </linearGradient>
        <filter id="b" width="232.7%" height="232.7%" x="-66.3%" y="-66.3%" filterUnits="objectBoundingBox">
            <feGaussianBlur in="SourceGraphic" stdDeviation="10.616"/>
        </filter>
    </defs>
    <g fill="none" fill-rule="evenodd" transform="translate(24 12)">
        <circle cx="24" cy="36" r="24" fill="url(#a)" filter="url(#b)"/>
        <circle cx="27" cy="27" r="27" fill="url(#a)"/>
        <path fill="#FFF" fill-rule="nonzero" stroke="#FFF" stroke-width=".758" d="M21.48 18h.352c.21.027.42.05.623.11.475.13.9.385 1.321.628l10.71 6.1c.564.325 1.095.768 1.35 1.376.24.544.212 1.193-.069 1.718-.27.529-.748.92-1.258 1.216-3.525 2.009-7.05 4.016-10.575 6.023-.479.265-.945.572-1.479.719-.213.065-.437.084-.658.11h-.317c-.271-.06-.55-.117-.792-.26-.477-.266-.819-.73-.984-1.242-.227-.647-.162-1.341-.173-2.014V20.707c.004-.433.044-.874.2-1.282.186-.52.564-.987 1.075-1.226.212-.104.446-.147.675-.199zm.101 1.248a.76.76 0 0 0-.514.3 1.427 1.427 0 0 0-.24.601c-.064.489-.03.981-.04 1.472 0 3.879.002 7.758 0 11.637.01.409.026.85.28 1.195.166.235.471.334.752.306.394-.037.748-.232 1.082-.429l10.576-6.022c.367-.212.764-.402 1.036-.736.196-.224.3-.548.183-.833-.152-.384-.507-.642-.858-.84-3.72-2.119-7.44-4.239-11.16-6.356-.333-.18-.708-.343-1.097-.295z"/>
    </g>
</svg>
