<svg xmlns="http://www.w3.org/2000/svg" width="177" height="22" viewBox="0 0 177 22">
    <defs>
        <linearGradient id="a" x1="32.792%" x2="64.399%" y1="-43.118%" y2="106.347%">
            <stop offset="0%" stop-color="#622774"/>
            <stop offset="100%" stop-color="#C53364"/>
        </linearGradient>
    </defs>
    <g fill="none" fill-rule="evenodd">
        <path fill="url(#a)" fill-rule="nonzero" d="M15.775.125c2.192.051 4.386-.013 6.578.017C27.878.093 33.408.126 38.934.112c.008.346.009.692.003 1.039-.366-.006-.73-.007-1.094-.006 0 .604-.005 1.208.016 1.812.361-.006.725-.008 1.09-.011.003 5.345.007 10.69-.003 16.034-.364-.004-.727-.006-1.09-.008a47.42 47.42 0 0 0-.009 1.811l1.105.006-.006.972c-7.723-.002-15.445-.006-23.168-.006l-.001-.963c.331-.004.663-.009.995-.016l-.006-1.8c-.33 0-.66 0-.99.003 0-.43 0-.861.005-1.29-.793-.03-1.59.025-2.38-.03-.791-.078-1.068-1.147-.519-1.644.358-.37.932-.233 1.398-.26.536-.025 1.203.133 1.612-.296.518-.526.212-1.568-.595-1.603-3.179-.064-6.363.013-9.542-.039-.85-.022-1.121-1.215-.503-1.688.204-.21.527-.187.798-.21 4.38-.008 8.76.007 13.137-.008.843.09 1.298-.994.792-1.574-.216-.286-.598-.344-.94-.35-6.054-.02-12.11-.004-18.164-.02-.509.026-.921-.464-.86-.94-.063-.53.44-.992.986-.94 5.243-.013 10.488.01 15.73-.017.776.043 1.202-.905.804-1.488a1.033 1.033 0 0 0-.933-.424c-1.786-.003-3.571.003-5.356.002-.391.022-.81-.14-.977-.5-.343-.583.103-1.445.831-1.419 1.56-.02 3.12.007 4.68-.011-.002-.423-.005-.847-.009-1.27a7.922 7.922 0 0 0 1.01-.071 36.647 36.647 0 0 1-.008-1.735 79.198 79.198 0 0 0-.992-.014 79.494 79.494 0 0 1-.006-1.015zm2 1.016c0 .604-.002 1.208 0 1.81a77.41 77.41 0 0 1 1.796.012c.102-.603.08-1.215.062-1.822-.619-.003-1.239-.003-1.857 0zm2.88 0c.006.592-.028 1.184.018 1.774.594.088 1.2.021 1.798.038a15.19 15.19 0 0 0 .039-1.812 275.28 275.28 0 0 0-1.855 0zm2.872.002c.005.6.004 1.199.008 1.799.605.014 1.209.014 1.815.005.007-.604.002-1.208.002-1.811-.608.005-1.217.007-1.825.007zm2.833-.002c.003.554-.043 1.11.015 1.662.033.033.1.1.133.135.566.037 1.135.002 1.703.018.021-.604.017-1.21.017-1.813L26.36 1.14zm5.73.014c.001.575.004 1.15-.001 1.724.623.099 1.256.086 1.884.045.002-.593.002-1.186.005-1.777a47.53 47.53 0 0 0-1.888.008zm2.877-.007V2.91a8.624 8.624 0 0 0 1.873-.01c-.003-.583-.005-1.166-.001-1.75a60.102 60.102 0 0 0-1.872-.002zm-5.74 0c.012.56-.024 1.123.013 1.683.547.27 1.246.054 1.85.113.012-.6.014-1.2.014-1.8-.626-.001-1.25-.003-1.877.004zm-6.095 3.94c-.394.18-.613.607-.579 1.019.003 3.239 0 6.477.002 9.715-.045.43.223.842.621 1.028.364.146.77.042 1.09-.152 2.927-1.627 5.854-3.25 8.78-4.879.688-.317.702-1.38.02-1.714-2.927-1.633-5.86-3.257-8.79-4.887-.338-.2-.77-.287-1.144-.13zM17.79 18.993c-.039.598-.006 1.198-.013 1.797.62-.002 1.242-.004 1.863-.004.007-.605.026-1.215-.059-1.816-.597.007-1.195-.023-1.791.023zm2.871-.013c-.011.601-.007 1.204-.004 1.806.62.003 1.24.003 1.86-.007.007-.605.013-1.212-.05-1.814-.603.01-1.204.014-1.806.015zm2.879-.008a63.887 63.887 0 0 0-.006 1.821 52.692 52.692 0 0 1 1.814.001c.007-.608.01-1.217-.001-1.825-.602.003-1.204.004-1.807.003zm2.82 1.811c.622.003 1.242.002 1.864.009a47.99 47.99 0 0 0-.009-1.823c-.6.008-1.198.008-1.797-.007-.095.603-.07 1.213-.058 1.821zm2.87-1.806a94.26 94.26 0 0 0 .002 1.806c.621.005 1.244.006 1.866.002.006-.604.01-1.208-.01-1.81-.619-.003-1.239-.005-1.858.002zm2.873-.004a62.934 62.934 0 0 0-.007 1.808c.624.007 1.25.007 1.876.002.006-.602.006-1.206-.007-1.809h-1.862zm2.864 1.813l1.868-.003c.004-.602.005-1.205-.006-1.807-.617-.002-1.233 0-1.85 0-.016.602-.012 1.206-.012 1.81z" transform="translate(71.255 .092)"/>
        <text fill="#FFF" font-family="SFProDisplay-Medium, SF Pro Display" font-size="16.033" font-weight="400" letter-spacing="1.415" transform="translate(-1.896 .092)">
            <tspan x="5.332" y="16.503">Movies</tspan>
        </text>
        <text fill="#FFF" font-family="SFProDisplay-Medium, SF Pro Display" font-size="16.033" font-weight="400" letter-spacing="1.415" transform="translate(-1.896 .092)">
            <tspan x="123.628" y="16.503">Finder</tspan>
        </text>
    </g>
</svg>
