<?xml version="1.0" encoding="UTF-8"?>
<svg width="40px" height="22px" viewBox="0 0 40 22" version="1.1" xmlns="http://www.w3.org/2000/svg" xmlns:xlink="http://www.w3.org/1999/xlink">
    <!-- Generator: Sketch 48.2 (47327) - http://www.bohemiancoding.com/sketch -->
    <title>Shape</title>
    <desc>Created with Sketch.</desc>
    <defs>
        <linearGradient x1="44.6821188%" y1="-43.118%" x2="54.4498008%" y2="106.347%" id="linearGradient-1">
            <stop stop-color="#622774" offset="0%"></stop>
            <stop stop-color="#C53364" offset="100%"></stop>
        </linearGradient>
    </defs>
    <g id="Artboard" stroke="none" stroke-width="1" fill="none" fill-rule="evenodd" transform="translate(-126.000000, -51.000000)">
        <g id="group" transform="translate(58.000000, 51.000000)" fill="url(#linearGradient-1)" fill-rule="nonzero">
            <path d="M83.925,0.125 C86.117,0.176 88.311,0.112 90.503,0.142 C96.028,0.093 101.558,0.126 107.084,0.112 C107.092,0.458 107.093,0.804 107.087,1.151 C106.721,1.145 106.357,1.144 105.993,1.145 C105.993,1.749 105.988,2.353 106.009,2.957 C106.37,2.951 106.734,2.949 107.099,2.946 C107.102,8.291 107.106,13.636 107.096,18.98 C106.732,18.976 106.369,18.974 106.006,18.972 C105.991472,19.5755543 105.988471,20.1793311 105.997,20.783 L107.102,20.789 L107.096,21.761 C99.373,21.759 91.651,21.755 83.928,21.755 L83.927,20.792 C84.258,20.788 84.59,20.783 84.922,20.776 L84.916,18.976 C84.586,18.976 84.256,18.976 83.926,18.979 C83.926,18.549 83.926,18.118 83.931,17.689 C83.138,17.659 82.341,17.714 81.551,17.659 C80.76,17.581 80.483,16.512 81.032,16.015 C81.39,15.645 81.964,15.782 82.43,15.755 C82.966,15.73 83.633,15.888 84.042,15.459 C84.56,14.933 84.254,13.891 83.447,13.856 C80.268,13.792 77.084,13.869 73.905,13.817 C73.055,13.795 72.784,12.602 73.402,12.129 C73.606,11.919 73.929,11.942 74.2,11.919 C78.58,11.911 82.96,11.926 87.337,11.911 C88.18,12.001 88.635,10.917 88.129,10.337 C87.913,10.051 87.531,9.993 87.189,9.987 C81.135,9.967 75.079,9.983 69.025,9.967 C68.516,9.993 68.104,9.503 68.165,9.027 C68.102,8.497 68.605,8.035 69.151,8.087 C74.394,8.074 79.639,8.097 84.881,8.07 C85.657,8.113 86.083,7.165 85.685,6.582 C85.4709728,6.28548547 85.1161261,6.12422612 84.752,6.158 C82.966,6.155 81.181,6.161 79.396,6.16 C79.005,6.182 78.586,6.02 78.419,5.66 C78.076,5.077 78.522,4.215 79.25,4.241 C80.81,4.221 82.37,4.248 83.93,4.23 C83.928,3.807 83.925,3.383 83.921,2.96 C84.2588362,2.95789385 84.5961917,2.93417876 84.931,2.889 C84.9146415,2.31081084 84.911974,1.73231543 84.923,1.154 C84.5923658,1.14726226 84.2616927,1.1425955 83.931,1.14 C83.92684,0.801682883 83.92484,0.463342654 83.925,0.125 Z M85.925,1.141 C85.925,1.745 85.923,2.349 85.925,2.951 C86.5236929,2.9480546 87.1223999,2.95205487 87.721,2.963 C87.823,2.36 87.801,1.748 87.783,1.141 C87.164,1.138 86.544,1.138 85.926,1.141 L85.925,1.141 Z M88.805,1.141 C88.811,1.733 88.777,2.325 88.823,2.915 C89.417,3.003 90.023,2.936 90.621,2.953 C90.6700542,2.35031463 90.6830773,1.74523786 90.66,1.141 C90.0416684,1.13891665 89.4233316,1.13891665 88.805,1.141 Z M91.677,1.143 C91.682,1.743 91.681,2.342 91.685,2.942 C92.29,2.956 92.894,2.956 93.5,2.947 C93.507,2.343 93.502,1.739 93.502,1.136 C92.894,1.141 92.285,1.143 91.677,1.143 Z M94.51,1.141 C94.513,1.695 94.467,2.251 94.525,2.803 C94.558,2.836 94.625,2.903 94.658,2.938 C95.224,2.975 95.793,2.94 96.361,2.956 C96.382,2.352 96.378,1.746 96.378,1.143 L94.51,1.14 L94.51,1.141 Z M100.24,1.155 C100.241,1.73 100.244,2.305 100.239,2.879 C100.862,2.978 101.495,2.965 102.123,2.924 C102.125,2.331 102.125,1.738 102.128,1.147 C101.498676,1.13716578 100.869218,1.13983297 100.24,1.155 Z M103.117,1.148 L103.117,2.91 C103.739845,2.97467638 104.367881,2.97132328 104.99,2.9 C104.987,2.317 104.985,1.734 104.989,1.15 C104.365048,1.1396149 103.740973,1.13894815 103.117,1.148 Z M97.377,1.148 C97.389,1.708 97.353,2.271 97.39,2.831 C97.937,3.101 98.636,2.885 99.24,2.944 C99.252,2.344 99.254,1.744 99.254,1.144 C98.628,1.143 98.004,1.141 97.377,1.148 Z M91.282,5.088 C90.888,5.268 90.669,5.695 90.703,6.107 C90.706,9.346 90.703,12.584 90.705,15.822 C90.66,16.252 90.928,16.664 91.326,16.85 C91.69,16.996 92.096,16.892 92.416,16.698 C95.343,15.071 98.27,13.448 101.196,11.819 C101.884,11.502 101.898,10.439 101.216,10.105 C98.289,8.472 95.356,6.848 92.426,5.218 C92.088,5.018 91.656,4.931 91.282,5.088 Z M85.94,18.993 C85.901,19.591 85.934,20.191 85.927,20.79 C86.547,20.788 87.169,20.786 87.79,20.786 C87.797,20.181 87.816,19.571 87.731,18.97 C87.134,18.977 86.536,18.947 85.94,18.993 Z M88.811,18.98 C88.8,19.581 88.804,20.184 88.807,20.786 C89.427,20.789 90.047,20.789 90.667,20.779 C90.674,20.174 90.68,19.567 90.617,18.965 C90.014,18.975 89.413,18.979 88.811,18.98 Z M91.69,18.972 C91.6793488,19.5789407 91.6773486,20.1860023 91.684,20.793 C92.2886276,20.7829243 92.8933839,20.7832576 93.498,20.794 C93.505,20.186 93.508,19.577 93.497,18.969 C92.895,18.972 92.293,18.973 91.69,18.972 Z M94.51,20.783 C95.132,20.786 95.752,20.785 96.374,20.792 C96.3825432,20.1843312 96.3795427,19.5765549 96.365,18.969 C95.765,18.977 95.167,18.977 94.568,18.962 C94.473,19.565 94.498,20.175 94.51,20.783 Z M97.38,18.977 C97.3748994,19.5789926 97.3755661,20.1810202 97.382,20.783 C98.003,20.788 98.626,20.789 99.248,20.785 C99.254,20.181 99.258,19.577 99.238,18.975 C98.619,18.972 97.999,18.97 97.38,18.977 Z M100.253,18.973 C100.242009,19.5756021 100.239676,20.1783309 100.246,20.781 C100.87,20.788 101.496,20.788 102.122,20.783 C102.128,20.181 102.128,19.577 102.115,18.974 L100.253,18.974 L100.253,18.973 Z M103.117,20.786 L104.985,20.783 C104.989,20.181 104.99,19.578 104.979,18.976 C104.362,18.974 103.746,18.976 103.129,18.976 C103.113,19.578 103.117,20.182 103.117,20.786 Z" id="Shape"></path>
        </g>
    </g>
</svg>