<svg xmlns="http://www.w3.org/2000/svg" width="29" height="28" viewBox="0 0 29 28">
    <path fill="#C53364" fill-rule="evenodd" stroke="#C53364" stroke-width="2.004" d="M27.236 25.257c.15.15.225.336.225.56a.761.761 0 0 1-.225.562.788.788 0 0 1-.573.25.788.788 0 0 1-.574-.25l-7.731-7.781a10.104 10.104 0 0 1-2.993 1.795 9.702 9.702 0 0 1-3.541.649 9.714 9.714 0 0 1-3.891-.786 10.226 10.226 0 0 1-3.18-2.132 9.802 9.802 0 0 1-2.132-3.168 9.85 9.85 0 0 1-.773-3.89c0-1.38.257-2.677.773-3.89a9.802 9.802 0 0 1 2.132-3.168 10.226 10.226 0 0 1 3.18-2.133 9.714 9.714 0 0 1 3.89-.785c1.364 0 2.653.262 3.866.785a10.226 10.226 0 0 1 3.18 2.133 9.97 9.97 0 0 1 2.145 3.167 9.714 9.714 0 0 1 .786 3.89 9.604 9.604 0 0 1-.624 3.455 10.355 10.355 0 0 1-1.696 2.93l7.756 7.807zM11.824 19.47c1.147 0 2.232-.22 3.254-.661A8.371 8.371 0 0 0 17.747 17a8.668 8.668 0 0 0 1.796-2.668 8.11 8.11 0 0 0 .66-3.267 8.11 8.11 0 0 0-.66-3.267 8.668 8.668 0 0 0-1.796-2.669 8.371 8.371 0 0 0-2.669-1.808 8.137 8.137 0 0 0-3.254-.661c-1.164 0-2.257.22-3.28.66A8.37 8.37 0 0 0 5.875 5.13 8.668 8.668 0 0 0 4.08 7.799a8.11 8.11 0 0 0-.661 3.267c0 1.164.22 2.253.66 3.267A8.668 8.668 0 0 0 5.876 17a8.37 8.37 0 0 0 2.669 1.809c1.023.44 2.116.66 3.28.66z"/>
</svg>
